<svg width="923" height="88" viewBox="0 0 923 88" fill="none" xmlns="http://www.w3.org/2000/svg">
<g filter="url(#filter0_i_6_146)">
<path d="M52.68 29.4C52.68 14.64 40.8 1.32 25.68 1.32H6.84C2.88 1.32 0 4.68 0 8.52V81.12C0 83.88 1.92 85.92 4.44 85.92H12.96C15.48 85.92 17.4 83.88 17.4 81.12V57.6H25.68C40.92 57.6 52.68 44.28 52.68 29.4ZM35.16 29.4C35.16 35.16 30.6 39.96 25.08 39.96H17.4V18.96H25.08C27.84 18.96 30.36 20.04 32.16 22.08C34.08 24 35.16 26.64 35.16 29.4Z" fill="#F2DE03"/>
<path d="M100.017 4.92C99.2972 2.4 97.1372 0.719998 94.6172 0.719998H86.3372C83.8172 0.719998 81.5372 2.4 80.8172 4.92L57.8972 79.32C57.7772 79.8 57.6572 80.28 57.6572 81C57.6572 83.76 59.8172 85.92 62.4572 85.92H69.8972C72.4172 85.92 74.5772 84.24 75.4172 81.6L79.6172 67.32H101.097L105.417 81.6C106.137 84.24 108.297 85.92 110.817 85.92H118.497C121.137 85.92 123.297 83.76 123.297 81C123.297 80.28 123.177 79.8 123.057 79.32L100.017 4.92ZM95.9372 49.92H84.7772L90.4172 30.6L95.9372 49.92Z" fill="#F2DE03"/>
<path d="M136.701 1.32C134.181 1.32 132.141 3.36 132.141 6.12V78.72C132.141 82.56 135.021 85.92 138.981 85.92H171.981C174.501 85.92 176.421 83.88 176.421 81.12V72.84C176.421 70.2 174.501 68.04 171.981 68.04H149.661V6.12C149.661 3.36 147.621 1.32 145.101 1.32H136.701Z" fill="#F2DE03"/>
<path d="M237.063 29.4C237.063 14.52 225.303 1.32 210.063 1.32H191.223C189.423 1.32 187.623 2.04 186.423 3.48C185.103 4.8 184.383 6.6 184.383 8.52V81.12C184.383 83.88 186.423 85.92 188.943 85.92H197.343C199.863 85.92 201.903 83.88 201.903 81.12V57.6H210.063C225.423 57.6 237.063 44.4 237.063 29.4ZM219.543 29.4C219.543 35.16 215.103 39.96 209.583 39.96H201.903V18.96H209.583C215.343 18.96 219.543 23.88 219.543 29.4Z" fill="#F2DE03"/>
<path d="M248.04 0.839996C245.52 0.839996 243.48 3 243.48 5.64V13.32C243.48 16.08 245.52 18.12 248.04 18.12H254.76V68.64H248.04C245.52 68.64 243.48 70.8 243.48 73.44V81.12C243.48 83.88 245.52 85.92 248.04 85.92H279.12C281.64 85.92 283.68 83.88 283.68 81.12V73.44C283.68 70.8 281.64 68.64 279.12 68.64H272.4V18.12H279.12C281.64 18.12 283.68 16.08 283.68 13.32V5.64C283.68 3 281.64 0.839996 279.12 0.839996H248.04Z" fill="#F2DE03"/>
<path d="M345.92 6.12C345.92 3.36 343.88 1.32 341.36 1.32H292.88C290.36 1.32 288.32 3.36 288.32 6.12V14.4C288.32 17.04 290.36 19.2 292.88 19.2H308.36V81.12C308.36 83.88 310.4 85.92 312.92 85.92H321.32C323.84 85.92 325.88 83.88 325.88 81.12V19.2H341.36C343.88 19.2 345.92 17.04 345.92 14.4V6.12Z" fill="#F2DE03"/>
<path d="M397.328 19.2C399.848 19.2 401.888 17.04 401.888 14.4V6.12C401.888 3.36 399.848 1.32 397.328 1.32H361.208C359.408 1.32 357.608 2.04 356.408 3.48C355.088 4.8 354.368 6.6 354.368 8.52V78.72C354.368 82.56 357.248 85.92 361.208 85.92H397.328C399.848 85.92 401.888 83.88 401.888 81.12V72.84C401.888 70.2 399.848 68.04 397.328 68.04H371.888V50.76H390.248C392.768 50.76 394.808 48.72 394.808 46.08V38.04C394.808 35.4 392.768 33.36 390.248 33.36H371.888V19.2H397.328Z" fill="#F2DE03"/>
<path d="M434.059 69.96C429.979 69.96 425.299 68.28 420.499 65.04H420.379C419.539 64.44 418.579 64.2 417.619 64.2C415.939 64.2 414.379 65.16 413.659 66.84L409.939 73.92C408.979 75.84 409.579 78.6 411.259 79.68C418.219 84.72 426.379 87.48 434.179 87.48C449.299 87.48 461.299 77.16 461.299 61.32C461.299 51.12 455.779 42.84 446.179 38.64C440.779 36.36 439.339 35.76 438.859 35.64C429.379 31.44 427.579 28.68 427.579 24.84C427.579 20.4 430.579 17.52 435.619 17.52C437.899 17.52 442.699 18.24 448.939 22.44L449.059 22.56C449.899 23.04 450.859 23.28 451.819 23.28C453.499 23.28 455.059 22.32 455.779 20.64L459.259 13.56C460.219 11.64 459.619 9 457.939 7.8C451.579 2.88 443.419 0 435.499 0C420.739 0 410.179 10.44 410.179 25.56C410.179 38.76 417.259 45.6 428.659 50.76L431.779 52.08C441.619 56.28 443.419 57.48 443.899 62.16C443.779 66.96 440.059 69.96 434.059 69.96Z" fill="#F2DE03"/>
<path d="M555.727 34.92C555.727 17.04 542.647 1.32 524.167 1.32H503.407C501.607 1.32 499.807 2.04 498.607 3.48C497.287 4.8 496.567 6.6 496.567 8.52V78.72C496.567 82.56 499.447 85.92 503.407 85.92H524.167C542.647 85.92 555.727 70.32 555.727 52.44V34.92ZM538.207 52.56C538.207 60.6 531.967 68.04 523.687 68.04H514.087V19.2H523.687C531.967 19.2 538.207 26.52 538.207 34.56V52.56Z" fill="#F2DE03"/>
<path d="M606.408 4.92C605.688 2.4 603.528 0.719998 601.008 0.719998H592.728C590.208 0.719998 587.928 2.4 587.208 4.92L564.288 79.32C564.168 79.8 564.048 80.28 564.048 81C564.048 83.76 566.208 85.92 568.848 85.92H576.288C578.808 85.92 580.968 84.24 581.808 81.6L586.008 67.32H607.488L611.808 81.6C612.528 84.24 614.688 85.92 617.208 85.92H624.888C627.528 85.92 629.688 83.76 629.688 81C629.688 80.28 629.568 79.8 629.448 79.32L606.408 4.92ZM602.328 49.92H591.168L596.808 30.6L602.328 49.92Z" fill="#F2DE03"/>
<path d="M709.811 64.32C708.491 63 707.171 62.76 706.331 62.76C705.491 62.76 704.171 63 702.851 64.56C699.851 67.92 696.131 69.6 691.451 69.6C684.971 69.6 679.211 63.12 679.211 55.56V31.8C679.211 24.36 684.971 17.88 691.451 17.88C696.131 17.88 699.851 19.56 702.851 22.92C704.171 24.48 705.491 24.72 706.451 24.72C707.651 24.72 708.731 24.24 709.811 23.16L714.611 17.88C715.451 16.68 715.931 15.36 715.931 14.16C715.931 12.84 715.571 11.64 714.731 10.68C709.091 3.72 700.811 0 691.451 0C674.411 0 661.691 15.12 661.691 31.8V55.56C661.691 72.12 674.291 87.48 691.451 87.48C700.691 87.48 708.971 83.64 714.851 76.68L714.971 76.56C715.691 75.6 716.051 74.52 716.051 73.32C716.051 71.88 715.451 70.56 714.491 69.48L709.811 64.32Z" fill="#F2DE03"/>
<path d="M785.792 31.8C785.792 14.88 772.712 0 755.432 0C738.152 0 725.072 14.88 725.072 31.8V55.56C725.072 72.48 738.032 87.48 755.432 87.48C772.832 87.48 785.792 72.48 785.792 55.56V31.8ZM768.272 55.56C768.272 62.64 762.872 69.6 755.432 69.6C748.112 69.6 742.592 62.52 742.592 55.56V31.8C742.592 24.72 748.112 17.88 755.432 17.88C762.872 17.88 768.272 24.72 768.272 31.8V55.56Z" fill="#F2DE03"/>
<path d="M850.867 29.4C850.867 14.52 839.107 1.32 823.867 1.32H805.028C803.228 1.32 801.427 2.04 800.227 3.48C798.907 4.8 798.188 6.6 798.188 8.52V81.12C798.188 83.88 800.227 85.92 802.747 85.92H811.148C813.668 85.92 815.708 83.88 815.708 81.12V57.6H823.867C839.227 57.6 850.867 44.4 850.867 29.4ZM833.347 29.4C833.347 35.16 828.908 39.96 823.388 39.96H815.708V18.96H823.388C829.148 18.96 833.347 23.88 833.347 29.4Z" fill="#F2DE03"/>
<path d="M899.377 4.92C898.657 2.4 896.497 0.719998 893.977 0.719998H885.697C883.177 0.719998 880.897 2.4 880.177 4.92L857.257 79.32C857.137 79.8 857.017 80.28 857.017 81C857.017 83.76 859.177 85.92 861.817 85.92H869.257C871.777 85.92 873.937 84.24 874.777 81.6L878.977 67.32H900.457L904.777 81.6C905.497 84.24 907.657 85.92 910.177 85.92H917.857C920.497 85.92 922.657 83.76 922.657 81C922.657 80.28 922.537 79.8 922.417 79.32L899.377 4.92ZM895.297 49.92H884.137L889.777 30.6L895.297 49.92Z" fill="#F2DE03"/>
</g>
<defs>
<filter id="filter0_i_6_146" x="0" y="0" width="922.657" height="91.48" filterUnits="userSpaceOnUse" color-interpolation-filters="sRGB">
<feFlood flood-opacity="0" result="BackgroundImageFix"/>
<feBlend mode="normal" in="SourceGraphic" in2="BackgroundImageFix" result="shape"/>
<feColorMatrix in="SourceAlpha" type="matrix" values="0 0 0 0 0 0 0 0 0 0 0 0 0 0 0 0 0 0 127 0" result="hardAlpha"/>
<feOffset dy="4"/>
<feGaussianBlur stdDeviation="2"/>
<feComposite in2="hardAlpha" operator="arithmetic" k2="-1" k3="1"/>
<feColorMatrix type="matrix" values="0 0 0 0 0 0 0 0 0 0 0 0 0 0 0 0 0 0 0.25 0"/>
<feBlend mode="normal" in2="shape" result="effect1_innerShadow_6_146"/>
</filter>
</defs>
</svg>
